<svg viewBox="0 0 630 630" version="1.1" xmlns="http://www.w3.org/2000/svg">
	<path d="M295.936,376.935L322.786,350.201L311.042,338.505L425.409,224.626L547.742,225.029C554.116,225.029 560.214,221.317 562.657,215.45C565.104,209.579 564.226,206.662 559.719,202.17L430.832,76.619L430.821,76.619C426.314,71.194 418.939,67.284 413.049,69.721C407.154,72.153 402.572,76.148 402.567,82.506L402.295,205.221L289.23,317.291L279.159,307.013L252.31,333.617L180.99,262.54L131.26,312.024C103.11,340.06 80.137,378.599 70.879,416.187C59.495,462.4 68.197,502.748 95.964,530.386C123.718,558.021 165.21,567.648 211.621,556.315C249.376,547.097 289.378,525.501 317.531,497.468L367.258,447.949L295.936,376.935ZM426.734,118.684L510.022,201.402L426.734,201.402L426.734,118.684ZM299.076,479.081C274.169,503.876 238.553,522.666 205.266,530.789C178.994,537.21 141.596,538.789 114.673,511.985C87.749,485.177 90.127,448.72 96.568,422.565C104.728,389.415 124.822,355.168 149.724,330.37L180.152,300.072L234.153,353.843L191.445,437.199L275.156,394.673L329.503,448.784L299.076,479.081Z" style="fill-rule:nonzero;"/>
	<style>
		path { fill: #000; }
		@media (prefers-color-scheme: dark) {
				path { fill: #FFF; }
		}
	</style>
</svg>
